<svg xmlns="http://www.w3.org/2000/svg"><symbol id="lovely-added-file" viewBox="0 0 24 24"><path d="M14 3v4a1 1 0 0 0 1 1h4" />
  <path d="M17 21h-10a2 2 0 0 1 -2 -2v-14a2 2 0 0 1 2 -2h7l5 5v11a2 2 0 0 1 -2 2" />
  <path d="M12 11l0 6" />
  <path d="M9 14l6 0" /></symbol><symbol id="lovely-amend-commit-message" viewBox="0 0 24 24"><path d="M4 20h4l10.5 -10.5a2.828 2.828 0 1 0 -4 -4l-10.5 10.5v4" />
  <path d="M13.5 6.5l4 4" /></symbol><symbol id="lovely-appearance-settings" viewBox="0 0 24 24"><path d="M3 21v-4a4 4 0 1 1 4 4h-4" />
  <path d="M21 3a16 16 0 0 0 -12.8 10.2" />
  <path d="M21 3a16 16 0 0 1 -10.2 12.8" />
  <path d="M10.6 9a9 9 0 0 1 4.4 4.4" /></symbol><symbol id="lovely-apply-patch-file" viewBox="0 0 24 24"><path d="M14 3v4a1 1 0 0 0 1 1h4" />
  <path d="M5 13v-8a2 2 0 0 1 2 -2h7l5 5v11a2 2 0 0 1 -2 2h-5.5m-9.5 -2h7m-3 -3l3 3l-3 3" /></symbol><symbol id="lovely-apply-stash" viewBox="0 0 24 24"><path d="M12 21l-8 -4.5v-9l8 -4.5l8 4.5v4.5" />
  <path d="M12 12l8 -4.5" />
  <path d="M12 12v9" />
  <path d="M12 12l-8 -4.5" />
  <path d="M22 18h-7" />
  <path d="M18 15l-3 3l3 3" /></symbol><symbol id="lovely-auto-configure" viewBox="0 0 24 24"><path d="M6 21l15 -15l-3 -3l-15 15l3 3" />
  <path d="M15 6l3 3" />
  <path d="M9 3a2 2 0 0 0 2 2a2 2 0 0 0 -2 2a2 2 0 0 0 -2 -2a2 2 0 0 0 2 -2" />
  <path d="M19 13a2 2 0 0 0 2 2a2 2 0 0 0 -2 2a2 2 0 0 0 -2 -2a2 2 0 0 0 2 -2" /></symbol><symbol id="lovely-bisect-bad" viewBox="0 0 24 24"><path d="M3 12a9 9 0 1 0 18 0a9 9 0 1 0 -18 0" />
  <path d="M10 10l4 4m0 -4l-4 4" /></symbol><symbol id="lovely-bisect-good" viewBox="0 0 24 24"><path d="M3 12a9 9 0 1 0 18 0a9 9 0 1 0 -18 0" />
  <path d="M9 12l2 2l4 -4" /></symbol><symbol id="lovely-close" viewBox="0 0 24 24"><path d="M18 6l-12 12" />
  <path d="M6 6l12 12" /></symbol><symbol id="lovely-collapse-left" viewBox="0 0 24 24"><path d="M15 6l-6 6l6 6" /></symbol><symbol id="lovely-collapse-unchanged-lines" viewBox="0 0 24 24"><path d="M5 9l4 0l0 -4" />
  <path d="M3 3l6 6" />
  <path d="M5 15l4 0l0 4" />
  <path d="M3 21l6 -6" />
  <path d="M19 9l-4 0l0 -4" />
  <path d="M15 9l6 -6" />
  <path d="M19 15l-4 0l0 4" />
  <path d="M15 15l6 6" /></symbol><symbol id="lovely-command-palette" viewBox="0 0 24 24"><path d="M7 9a2 2 0 1 1 2 -2v10a2 2 0 1 1 -2 -2h10a2 2 0 1 1 -2 2v-10a2 2 0 1 1 2 2h-10" /></symbol><symbol id="lovely-commit-information" viewBox="0 0 24 24"><path d="M3 12a9 9 0 1 0 18 0a9 9 0 0 0 -18 0" />
  <path d="M12 9h.01" />
  <path d="M11 12h1v4h1" /></symbol><symbol id="lovely-compare-revisions" viewBox="0 0 24 24"><path d="M11 16h10" />
  <path d="M11 16l4 4" />
  <path d="M11 16l4 -4" />
  <path d="M13 8h-10" />
  <path d="M13 8l-4 4" />
  <path d="M13 8l-4 -4" /></symbol><symbol id="lovely-confirm" viewBox="0 0 24 24"><path d="M5 12l5 5l10 -10" /></symbol><symbol id="lovely-conflicted-file" viewBox="0 0 24 24"><path d="M14 3v4a1 1 0 0 0 1 1h4" />
  <path d="M17 21h-10a2 2 0 0 1 -2 -2v-14a2 2 0 0 1 2 -2h7l5 5v11a2 2 0 0 1 -2 2" />
  <path d="M12 17l.01 0" />
  <path d="M12 11l0 3" /></symbol><symbol id="lovely-continue-operation" viewBox="0 0 24 24"><path d="M7 4v16l13 -8l-13 -8" /></symbol><symbol id="lovely-copy-to-clipboard" viewBox="0 0 24 24"><path d="M7 9.667a2.667 2.667 0 0 1 2.667 -2.667h8.666a2.667 2.667 0 0 1 2.667 2.667v8.666a2.667 2.667 0 0 1 -2.667 2.667h-8.666a2.667 2.667 0 0 1 -2.667 -2.667l0 -8.666" />
  <path d="M4.012 16.737a2.005 2.005 0 0 1 -1.012 -1.737v-10c0 -1.1 .9 -2 2 -2h10c.75 0 1.158 .385 1.5 1" /></symbol><symbol id="lovely-create-new" viewBox="0 0 24 24"><path d="M12 5l0 14" />
  <path d="M5 12l14 0" /></symbol><symbol id="lovely-create-pull-request" viewBox="0 0 24 24"><path d="M4 18a2 2 0 1 0 4 0a2 2 0 1 0 -4 0" />
  <path d="M4 6a2 2 0 1 0 4 0a2 2 0 1 0 -4 0" />
  <path d="M16 18a2 2 0 1 0 4 0a2 2 0 1 0 -4 0" />
  <path d="M6 8l0 8" />
  <path d="M11 6h5a2 2 0 0 1 2 2v8" />
  <path d="M14 9l-3 -3l3 -3" /></symbol><symbol id="lovely-dangerous-operation" viewBox="0 0 24 24"><path d="M15.04 19.745c-.942 .551 -1.964 .976 -3.04 1.255a12 12 0 0 1 -8.5 -15a12 12 0 0 0 8.5 -3a12 12 0 0 0 8.5 3a12 12 0 0 1 .195 6.015" />
  <path d="M19 16v3" />
  <path d="M19 22v.01" /></symbol><symbol id="lovely-delete-permanently" viewBox="0 0 24 24"><path d="M4 7l16 0" />
  <path d="M10 11l0 6" />
  <path d="M14 11l0 6" />
  <path d="M5 7l1 12a2 2 0 0 0 2 2h8a2 2 0 0 0 2 -2l1 -12" />
  <path d="M9 7v-3a1 1 0 0 1 1 -1h4a1 1 0 0 1 1 1v3" /></symbol><symbol id="lovely-deleted-file" viewBox="0 0 24 24"><path d="M14 3v4a1 1 0 0 0 1 1h4" />
  <path d="M17 21h-10a2 2 0 0 1 -2 -2v-14a2 2 0 0 1 2 -2h7l5 5v11a2 2 0 0 1 -2 2" />
  <path d="M10 12l4 4m0 -4l-4 4" /></symbol><symbol id="lovely-discard-diff-hunk" viewBox="0 0 24 24"><path d="M14 3v4a1 1 0 0 0 1 1h4" />
  <path d="M17 21h-10a2 2 0 0 1 -2 -2v-14a2 2 0 0 1 2 -2h7l5 5v11a2 2 0 0 1 -2 2" />
  <path d="M9 14l6 0" /></symbol><symbol id="lovely-disconnect-submodule" viewBox="0 0 24 24"><path d="M13.55 17.733a5.806 5.806 0 0 1 -7.356 -4.052a5.81 5.81 0 0 1 1.537 -5.627l2.054 -2.054l7.165 7.165" />
  <path d="M4 20l3.5 -3.5" />
  <path d="M15 4l-3.5 3.5" />
  <path d="M20 9l-3.5 3.5" />
  <path d="M16 16l4 4" />
  <path d="M20 16l-4 4" /></symbol><symbol id="lovely-download-from-remote" viewBox="0 0 24 24"><path d="M4 17v2a2 2 0 0 0 2 2h12a2 2 0 0 0 2 -2v-2" />
  <path d="M7 11l5 5l5 -5" />
  <path d="M12 4l0 12" /></symbol><symbol id="lovely-expand-down" viewBox="0 0 24 24"><path d="M6 9l6 6l6 -6" /></symbol><symbol id="lovely-expand-right" viewBox="0 0 24 24"><path d="M9 6l6 6l-6 6" /></symbol><symbol id="lovely-expand-up" viewBox="0 0 24 24"><path d="M6 15l6 -6l6 6" /></symbol><symbol id="lovely-fetch-remote-branch" viewBox="0 0 24 24"><path d="M19 18a3.5 3.5 0 0 0 0 -7h-1a5 4.5 0 0 0 -11 -2a4.6 4.4 0 0 0 -2.1 8.4" />
  <path d="M12 13l0 9" />
  <path d="M9 19l3 3l3 -3" /></symbol><symbol id="lovely-file-diff" viewBox="0 0 24 24"><path d="M14 3v4a1 1 0 0 0 1 1h4" />
  <path d="M17 21h-10a2 2 0 0 1 -2 -2v-14a2 2 0 0 1 2 -2h7l5 5v11a2 2 0 0 1 -2 2" />
  <path d="M12 10l0 4" />
  <path d="M10 12l4 0" />
  <path d="M10 17l4 0" /></symbol><symbol id="lovely-file-history" viewBox="0 0 24 24"><path d="M14 3v4a1 1 0 0 0 1 1h4" />
  <path d="M17 21h-10a2 2 0 0 1 -2 -2v-14a2 2 0 0 1 2 -2h7l5 5v11a2 2 0 0 1 -2 2" />
  <path d="M8 14a4 4 0 1 0 8 0a4 4 0 1 0 -8 0" />
  <path d="M12 12.496v1.504l1 1" /></symbol><symbol id="lovely-file" viewBox="0 0 24 24"><path d="M14 3v4a1 1 0 0 0 1 1h4" />
  <path d="M17 21h-10a2 2 0 0 1 -2 -2v-14a2 2 0 0 1 2 -2h7l5 5v11a2 2 0 0 1 -2 2" /></symbol><symbol id="lovely-full-file-view" viewBox="0 0 24 24"><path d="M14 3v4a1 1 0 0 0 1 1h4" />
  <path d="M17 21h-10a2 2 0 0 1 -2 -2v-14a2 2 0 0 1 2 -2h7l5 5v11a2 2 0 0 1 -2 2" />
  <path d="M9 9l1 0" />
  <path d="M9 13l6 0" />
  <path d="M9 17l6 0" /></symbol><symbol id="lovely-git-bisect" viewBox="0 0 24 24"><path d="M4 6a2 2 0 1 0 4 0a2 2 0 1 0 -4 0" />
  <path d="M16 18a2 2 0 1 0 4 0a2 2 0 1 0 -4 0" />
  <path d="M11 6h5a2 2 0 0 1 2 2v8" />
  <path d="M14 9l-3 -3l3 -3" />
  <path d="M13 18h-5a2 2 0 0 1 -2 -2v-8" />
  <path d="M10 15l3 3l-3 3" /></symbol><symbol id="lovely-git-branch" viewBox="0 0 24 24"><path d="M5 18a2 2 0 1 0 4 0a2 2 0 1 0 -4 0" />
  <path d="M5 6a2 2 0 1 0 4 0a2 2 0 1 0 -4 0" />
  <path d="M15 6a2 2 0 1 0 4 0a2 2 0 1 0 -4 0" />
  <path d="M7 8l0 8" />
  <path d="M9 18h6a2 2 0 0 0 2 -2v-5" />
  <path d="M14 14l3 -3l3 3" /></symbol><symbol id="lovely-git-commit" viewBox="0 0 24 24"><path d="M9 12a3 3 0 1 0 6 0a3 3 0 1 0 -6 0" />
  <path d="M12 3l0 6" />
  <path d="M12 15l0 6" /></symbol><symbol id="lovely-git-identity" viewBox="0 0 24 24"><path d="M8 7a4 4 0 1 0 8 0a4 4 0 0 0 -8 0" />
  <path d="M6 21v-2a4 4 0 0 1 4 -4h4a4 4 0 0 1 4 4v2" /></symbol><symbol id="lovely-git-lfs" viewBox="0 0 24 24"><path d="M4 6c0 1.657 3.582 3 8 3s8 -1.343 8 -3s-3.582 -3 -8 -3s-8 1.343 -8 3" />
  <path d="M4 6v6c0 1.657 3.582 3 8 3c.856 0 1.68 -.05 2.454 -.144m5.546 -2.856v-6" />
  <path d="M4 12v6c0 1.657 3.582 3 8 3c.171 0 .341 -.002 .51 -.006" />
  <path d="M19 22v-6" />
  <path d="M22 19l-3 -3l-3 3" /></symbol><symbol id="lovely-git-tag" viewBox="0 0 24 24"><path d="M6.5 7.5a1 1 0 1 0 2 0a1 1 0 1 0 -2 0" />
  <path d="M3 6v5.172a2 2 0 0 0 .586 1.414l7.71 7.71a2.41 2.41 0 0 0 3.408 0l5.592 -5.592a2.41 2.41 0 0 0 0 -3.408l-7.71 -7.71a2 2 0 0 0 -1.414 -.586h-5.172a3 3 0 0 0 -3 3" /></symbol><symbol id="lovely-git-worktree" viewBox="0 0 24 24"><path d="M11 19h-6a2 2 0 0 1 -2 -2v-11a2 2 0 0 1 2 -2h4l3 3h7a2 2 0 0 1 2 2v4" />
  <path d="M20 21l2 -2l-2 -2" />
  <path d="M17 17l-2 2l2 2" /></symbol><symbol id="lovely-hide-unmodified-lines" viewBox="0 0 24 24"><path d="M10.585 10.587a2 2 0 0 0 2.829 2.828" />
  <path d="M16.681 16.673a8.717 8.717 0 0 1 -4.681 1.327c-3.6 0 -6.6 -2 -9 -6c1.272 -2.12 2.712 -3.678 4.32 -4.674m2.86 -1.146a9.055 9.055 0 0 1 1.82 -.18c3.6 0 6.6 2 9 6c-.666 1.11 -1.379 2.067 -2.138 2.87" />
  <path d="M3 3l18 18" /></symbol><symbol id="lovely-incoming-commits" viewBox="0 0 24 24"><path d="M15 12h3.586a1 1 0 0 1 .707 1.707l-6.586 6.586a1 1 0 0 1 -1.414 0l-6.586 -6.586a1 1 0 0 1 .707 -1.707h3.586v-3h6v3" />
  <path d="M15 3h-6" />
  <path d="M15 6h-6" /></symbol><symbol id="lovely-initialize-submodule" viewBox="0 0 24 24"><path d="M6 9l6 0" />
  <path d="M4 5l4 0" />
  <path d="M6 5v11a1 1 0 0 0 1 1h5" />
  <path d="M12 8a1 1 0 0 1 1 -1h6a1 1 0 0 1 1 1v2a1 1 0 0 1 -1 1h-6a1 1 0 0 1 -1 -1l0 -2" />
  <path d="M12 16a1 1 0 0 1 1 -1h6a1 1 0 0 1 1 1v2a1 1 0 0 1 -1 1h-6a1 1 0 0 1 -1 -1l0 -2" /></symbol><symbol id="lovely-inspect-file" viewBox="0 0 24 24"><path d="M14 3v4a1 1 0 0 0 1 1h4" />
  <path d="M12 21h-5a2 2 0 0 1 -2 -2v-14a2 2 0 0 1 2 -2h7l5 5v4.5" />
  <path d="M14 17.5a2.5 2.5 0 1 0 5 0a2.5 2.5 0 1 0 -5 0" />
  <path d="M18.5 19.5l2.5 2.5" /></symbol><symbol id="lovely-interactive-rebase" viewBox="0 0 24 24"><path d="M9 6h11" />
  <path d="M12 12h8" />
  <path d="M15 18h5" />
  <path d="M5 6v.01" />
  <path d="M8 12v.01" />
  <path d="M11 18v.01" /></symbol><symbol id="lovely-lfs-tracked-file" viewBox="0 0 24 24"><path d="M8 12.75a4 1.75 0 1 0 8 0a4 1.75 0 1 0 -8 0" />
  <path d="M8 12.5v3.75c0 .966 1.79 1.75 4 1.75s4 -.784 4 -1.75v-3.75" />
  <path d="M14 3v4a1 1 0 0 0 1 1h4" />
  <path d="M17 21h-10a2 2 0 0 1 -2 -2v-14a2 2 0 0 1 2 -2h7l5 5v11a2 2 0 0 1 -2 2" /></symbol><symbol id="lovely-local-worktree" viewBox="0 0 24 24"><path d="M10 13a2 2 0 1 0 4 0a2 2 0 1 0 -4 0" />
  <path d="M12 15v4" />
  <path d="M5 4h4l3 3h7a2 2 0 0 1 2 2v8a2 2 0 0 1 -2 2h-14a2 2 0 0 1 -2 -2v-11a2 2 0 0 1 2 -2" /></symbol><symbol id="lovely-lock-worktree" viewBox="0 0 24 24"><path d="M5 13a2 2 0 0 1 2 -2h10a2 2 0 0 1 2 2v6a2 2 0 0 1 -2 2h-10a2 2 0 0 1 -2 -2v-6" />
  <path d="M11 16a1 1 0 1 0 2 0a1 1 0 0 0 -2 0" />
  <path d="M8 11v-4a4 4 0 1 1 8 0v4" /></symbol><symbol id="lovely-merge-branches" viewBox="0 0 24 24"><path d="M5 18a2 2 0 1 0 4 0a2 2 0 1 0 -4 0" />
  <path d="M5 6a2 2 0 1 0 4 0a2 2 0 1 0 -4 0" />
  <path d="M15 12a2 2 0 1 0 4 0a2 2 0 1 0 -4 0" />
  <path d="M7 8l0 8" />
  <path d="M7 8a4 4 0 0 0 4 4h4" /></symbol><symbol id="lovely-move-down" viewBox="0 0 24 24"><path d="M4 6l9 0" />
  <path d="M4 12l7 0" />
  <path d="M4 18l7 0" />
  <path d="M15 15l3 3l3 -3" />
  <path d="M18 6l0 12" /></symbol><symbol id="lovely-move-up" viewBox="0 0 24 24"><path d="M4 6l7 0" />
  <path d="M4 12l7 0" />
  <path d="M4 18l9 0" />
  <path d="M15 9l3 -3l3 3" />
  <path d="M18 6l0 12" /></symbol><symbol id="lovely-omit-change" viewBox="0 0 24 24"><path d="M3 12a9 9 0 1 0 18 0a9 9 0 1 0 -18 0" />
  <path d="M5.7 5.7l12.6 12.6" /></symbol><symbol id="lovely-open-external-link" viewBox="0 0 24 24"><path d="M12 6h-6a2 2 0 0 0 -2 2v10a2 2 0 0 0 2 2h10a2 2 0 0 0 2 -2v-6" />
  <path d="M11 13l9 -9" />
  <path d="M15 4h5v5" /></symbol><symbol id="lovely-open-merge-tool" viewBox="0 0 24 24"><path d="M3 21h4l13 -13a1.5 1.5 0 0 0 -4 -4l-13 13v4" />
  <path d="M14.5 5.5l4 4" />
  <path d="M12 8l-5 -5l-4 4l5 5" />
  <path d="M7 8l-1.5 1.5" />
  <path d="M16 12l5 5l-4 4l-5 -5" />
  <path d="M16 17l-1.5 1.5" /></symbol><symbol id="lovely-open-repository" viewBox="0 0 24 24"><path d="M5 19l2.757 -7.351a1 1 0 0 1 .936 -.649h12.307a1 1 0 0 1 .986 1.164l-.996 5.211a2 2 0 0 1 -1.964 1.625h-14.026a2 2 0 0 1 -2 -2v-11a2 2 0 0 1 2 -2h4l3 3h7a2 2 0 0 1 2 2v2" /></symbol><symbol id="lovely-open-selected-result" viewBox="0 0 24 24"><path d="M18 6v6a3 3 0 0 1 -3 3h-10l4 -4m0 8l-4 -4" /></symbol><symbol id="lovely-open-terminal" viewBox="0 0 24 24"><path d="M8 9l3 3l-3 3" />
  <path d="M13 15l3 0" />
  <path d="M3 6a2 2 0 0 1 2 -2h14a2 2 0 0 1 2 2v12a2 2 0 0 1 -2 2h-14a2 2 0 0 1 -2 -2l0 -12" /></symbol><symbol id="lovely-operation-in-progress" viewBox="0 0 24 24"><path d="M12 3a9 9 0 1 0 9 9" /></symbol><symbol id="lovely-outgoing-commits" viewBox="0 0 24 24"><path d="M9 12h-3.586a1 1 0 0 1 -.707 -1.707l6.586 -6.586a1 1 0 0 1 1.414 0l6.586 6.586a1 1 0 0 1 -.707 1.707h-3.586v3h-6v-3" />
  <path d="M9 21h6" />
  <path d="M9 18h6" /></symbol><symbol id="lovely-publish-to-remote" viewBox="0 0 24 24"><path d="M7 18a4.6 4.4 0 0 1 0 -9a5 4.5 0 0 1 11 2h1a3.5 3.5 0 0 1 0 7h-1" />
  <path d="M9 15l3 -3l3 3" />
  <path d="M12 12l0 9" /></symbol><symbol id="lovely-pull-from-remote" viewBox="0 0 24 24"><path d="M12 15v-12" />
  <path d="M16 7l-4 -4l-4 4" />
  <path d="M3 12a9 9 0 0 0 18 0" /></symbol><symbol id="lovely-push-to-remote" viewBox="0 0 24 24"><path d="M12 21v-12" />
  <path d="M8 13l4 -4l4 4" />
  <path d="M21 12a9 9 0 0 0 -18 0" /></symbol><symbol id="lovely-reflog-entry" viewBox="0 0 24 24"><path d="M9 5h-2a2 2 0 0 0 -2 2v12a2 2 0 0 0 2 2h10a2 2 0 0 0 2 -2v-12a2 2 0 0 0 -2 -2h-2" />
  <path d="M9 5a2 2 0 0 1 2 -2h2a2 2 0 0 1 2 2a2 2 0 0 1 -2 2h-2a2 2 0 0 1 -2 -2" />
  <path d="M9 12l.01 0" />
  <path d="M13 12l2 0" />
  <path d="M9 16l.01 0" />
  <path d="M13 16l2 0" /></symbol><symbol id="lovely-reflog-history" viewBox="0 0 24 24"><path d="M12 8l0 4l2 2" />
  <path d="M3.05 11a9 9 0 1 1 .5 4m-.5 5v-5h5" /></symbol><symbol id="lovely-refresh-repository" viewBox="0 0 24 24"><path d="M20 11a8.1 8.1 0 0 0 -15.5 -2m-.5 -4v4h4" />
  <path d="M4 13a8.1 8.1 0 0 0 15.5 2m.5 4v-4h-4" /></symbol><symbol id="lovely-remote-actions" viewBox="0 0 24 24"><path d="M20 4v8" />
  <path d="M16 4.5v7" />
  <path d="M12 5v16" />
  <path d="M8 5.5v5" />
  <path d="M4 6v4" />
  <path d="M20 8h-16" /></symbol><symbol id="lovely-remote-fork" viewBox="0 0 24 24"><path d="M10 18a2 2 0 1 0 4 0a2 2 0 1 0 -4 0" />
  <path d="M5 6a2 2 0 1 0 4 0a2 2 0 1 0 -4 0" />
  <path d="M15 6a2 2 0 1 0 4 0a2 2 0 1 0 -4 0" />
  <path d="M7 8v2a2 2 0 0 0 2 2h6a2 2 0 0 0 2 -2v-2" />
  <path d="M12 12l0 4" /></symbol><symbol id="lovely-remote-reference" viewBox="0 0 24 24"><path d="M11 18.004h-4.343c-2.572 -.004 -4.657 -2.011 -4.657 -4.487c0 -2.475 2.085 -4.482 4.657 -4.482c.393 -1.762 1.794 -3.2 3.675 -3.773c1.88 -.572 3.956 -.193 5.444 1c1.488 1.19 2.162 3.007 1.77 4.769h.99a3.468 3.468 0 0 1 3.307 2.444" />
  <path d="M20 21l2 -2l-2 -2" />
  <path d="M17 17l-2 2l2 2" /></symbol><symbol id="lovely-remove-file-content" viewBox="0 0 24 24"><path d="M3 3l18 18" />
  <path d="M7 3h7l5 5v7m0 4a2 2 0 0 1 -2 2h-10a2 2 0 0 1 -2 -2v-14" /></symbol><symbol id="lovely-remove-line" viewBox="0 0 24 24"><path d="M5 12l14 0" /></symbol><symbol id="lovely-remove-upstream" viewBox="0 0 24 24"><path d="M17 22v-2" />
  <path d="M9 15l6 -6" />
  <path d="M11 6l.463 -.536a5 5 0 0 1 7.071 7.072l-.534 .464" />
  <path d="M13 18l-.397 .534a5.068 5.068 0 0 1 -7.127 0a4.972 4.972 0 0 1 0 -7.071l.524 -.463" />
  <path d="M20 17h2" />
  <path d="M2 7h2" />
  <path d="M7 2v2" /></symbol><symbol id="lovely-rename-or-edit" viewBox="0 0 24 24"><path d="M7 7h-1a2 2 0 0 0 -2 2v9a2 2 0 0 0 2 2h9a2 2 0 0 0 2 -2v-1" />
  <path d="M20.385 6.585a2.1 2.1 0 0 0 -2.97 -2.97l-8.415 8.385v3h3l8.385 -8.415" />
  <path d="M16 5l3 3" /></symbol><symbol id="lovely-reset-modes" viewBox="0 0 24 24"><path d="M4 10a2 2 0 1 0 4 0a2 2 0 0 0 -4 0" />
  <path d="M6 4v4" />
  <path d="M6 12v8" />
  <path d="M13.199 14.399a2 2 0 1 0 -1.199 3.601" />
  <path d="M12 4v10" />
  <path d="M12 18v2" />
  <path d="M16 7a2 2 0 1 0 4 0a2 2 0 0 0 -4 0" />
  <path d="M18 4v1" />
  <path d="M18 9v2.5" />
  <path d="M17.001 19a2 2 0 1 0 4 0a2 2 0 1 0 -4 0" />
  <path d="M19.001 15.5v1.5" />
  <path d="M19.001 21v1.5" />
  <path d="M22.032 17.25l-1.299 .75" />
  <path d="M17.27 20l-1.3 .75" />
  <path d="M15.97 17.25l1.3 .75" />
  <path d="M20.733 20l1.3 .75" /></symbol><symbol id="lovely-reset-revision" viewBox="0 0 24 24"><path d="M10 20.777a8.942 8.942 0 0 1 -2.48 -.969" />
  <path d="M14 3.223a9.003 9.003 0 0 1 0 17.554" />
  <path d="M4.579 17.093a8.961 8.961 0 0 1 -1.227 -2.592" />
  <path d="M3.124 10.5c.16 -.95 .468 -1.85 .9 -2.675l.169 -.305" />
  <path d="M6.907 4.579a8.954 8.954 0 0 1 3.093 -1.356" />
  <path d="M12 8v4l3 3" /></symbol><symbol id="lovely-resize-horizontally" viewBox="0 0 24 24"><path d="M7 8l-4 4l4 4" />
  <path d="M17 8l4 4l-4 4" />
  <path d="M3 12l18 0" /></symbol><symbol id="lovely-resize-vertically" viewBox="0 0 24 24"><path d="M8 7l4 -4l4 4" />
  <path d="M8 17l4 4l4 -4" />
  <path d="M12 3l0 18" /></symbol><symbol id="lovely-restore-default" viewBox="0 0 24 24"><path d="M3.06 13a9 9 0 1 0 .49 -4.087" />
  <path d="M3 4.001v5h5" />
  <path d="M11 12a1 1 0 1 0 2 0a1 1 0 1 0 -2 0" /></symbol><symbol id="lovely-restore-stash" viewBox="0 0 24 24"><path d="M12 21l-8 -4.5v-9l8 -4.5l8 4.5v4.5" />
  <path d="M12 12l8 -4.5" />
  <path d="M12 12v9" />
  <path d="M12 12l-8 -4.5" />
  <path d="M15 18h7" />
  <path d="M19 15l3 3l-3 3" /></symbol><symbol id="lovely-save-changes" viewBox="0 0 24 24"><path d="M6 4h10l4 4v10a2 2 0 0 1 -2 2h-12a2 2 0 0 1 -2 -2v-12a2 2 0 0 1 2 -2" />
  <path d="M10 14a2 2 0 1 0 4 0a2 2 0 1 0 -4 0" />
  <path d="M14 4l0 4l-6 0l0 -4" /></symbol><symbol id="lovely-search" viewBox="0 0 24 24"><path d="M3 10a7 7 0 1 0 14 0a7 7 0 1 0 -14 0" />
  <path d="M21 21l-6 -6" /></symbol><symbol id="lovely-set-upstream" viewBox="0 0 24 24"><path d="M9 15l6 -6" />
  <path d="M11 6l.463 -.536a5 5 0 0 1 7.071 7.072l-.534 .464" />
  <path d="M13 18l-.397 .534a5.068 5.068 0 0 1 -7.127 0a4.972 4.972 0 0 1 0 -7.071l.524 -.463" /></symbol><symbol id="lovely-settings" viewBox="0 0 24 24"><path d="M10.325 4.317c.426 -1.756 2.924 -1.756 3.35 0a1.724 1.724 0 0 0 2.573 1.066c1.543 -.94 3.31 .826 2.37 2.37a1.724 1.724 0 0 0 1.065 2.572c1.756 .426 1.756 2.924 0 3.35a1.724 1.724 0 0 0 -1.066 2.573c.94 1.543 -.826 3.31 -2.37 2.37a1.724 1.724 0 0 0 -2.572 1.065c-.426 1.756 -2.924 1.756 -3.35 0a1.724 1.724 0 0 0 -2.573 -1.066c-1.543 .94 -3.31 -.826 -2.37 -2.37a1.724 1.724 0 0 0 -1.065 -2.572c-1.756 -.426 -1.756 -2.924 0 -3.35a1.724 1.724 0 0 0 1.066 -2.573c-.94 -1.543 .826 -3.31 2.37 -2.37c1 .608 2.296 .07 2.572 -1.065" />
  <path d="M9 12a3 3 0 1 0 6 0a3 3 0 0 0 -6 0" /></symbol><symbol id="lovely-show-whitespace" viewBox="0 0 24 24"><path d="M13 4v16" />
  <path d="M17 4v16" />
  <path d="M19 4h-9.5a4.5 4.5 0 0 0 0 9h3.5" /></symbol><symbol id="lovely-side-by-side-diff" viewBox="0 0 24 24"><path d="M3 4a1 1 0 0 1 1 -1h16a1 1 0 0 1 1 1v16a1 1 0 0 1 -1 1h-16a1 1 0 0 1 -1 -1v-16" />
  <path d="M12 3v18" /></symbol><symbol id="lovely-skip-bisect-commit" viewBox="0 0 24 24"><path d="M4 5v14l12 -7l-12 -7" />
  <path d="M20 5l0 14" /></symbol><symbol id="lovely-stage-changes" viewBox="0 0 24 24"><path d="M3 5a2 2 0 0 1 2 -2h14a2 2 0 0 1 2 2v14a2 2 0 0 1 -2 2h-14a2 2 0 0 1 -2 -2v-14" />
  <path d="M9 12l2 2l4 -4" /></symbol><symbol id="lovely-stage-diff-hunk" viewBox="0 0 24 24"><path d="M19 10h-14" />
  <path d="M5 6h14" />
  <path d="M14 14h-9" />
  <path d="M5 18h6" />
  <path d="M18 15v6" />
  <path d="M15 18h6" /></symbol><symbol id="lovely-stash" viewBox="0 0 24 24"><path d="M3 6a2 2 0 0 1 2 -2h14a2 2 0 0 1 2 2a2 2 0 0 1 -2 2h-14a2 2 0 0 1 -2 -2" />
  <path d="M5 8v10a2 2 0 0 0 2 2h10a2 2 0 0 0 2 -2v-10" />
  <path d="M10 12l4 0" /></symbol><symbol id="lovely-submodule" viewBox="0 0 24 24"><path d="M12 3l8 4.5l0 9l-8 4.5l-8 -4.5l0 -9l8 -4.5" />
  <path d="M12 12l8 -4.5" />
  <path d="M12 12l0 9" />
  <path d="M12 12l-8 -4.5" /></symbol><symbol id="lovely-submodules" viewBox="0 0 24 24"><path d="M7 16.5l-5 -3l5 -3l5 3v5.5l-5 3l0 -5.5" />
  <path d="M2 13.5v5.5l5 3" />
  <path d="M7 16.545l5 -3.03" />
  <path d="M17 16.5l-5 -3l5 -3l5 3v5.5l-5 3l0 -5.5" />
  <path d="M12 19l5 3" />
  <path d="M17 16.5l5 -3" />
  <path d="M12 13.5v-5.5l-5 -3l5 -3l5 3v5.5" />
  <path d="M7 5.03v5.455" />
  <path d="M12 8l5 -3" /></symbol><symbol id="lovely-toggle-refs-panel" viewBox="0 0 24 24"><path d="M4 6a2 2 0 0 1 2 -2h12a2 2 0 0 1 2 2v12a2 2 0 0 1 -2 2h-12a2 2 0 0 1 -2 -2l0 -12" />
  <path d="M9 4v16" />
  <path d="M14 10l2 2l-2 2" /></symbol><symbol id="lovely-undo-last-action" viewBox="0 0 24 24"><path d="M9 14l-4 -4l4 -4" />
  <path d="M5 10h11a4 4 0 1 1 0 8h-1" /></symbol><symbol id="lovely-unified-diff" viewBox="0 0 24 24"><path d="M4 6a2 2 0 0 1 2 -2h12a2 2 0 0 1 2 2v12a2 2 0 0 1 -2 2h-12a2 2 0 0 1 -2 -2l0 -12" />
  <path d="M4 12l16 0" /></symbol><symbol id="lovely-unknown-file" viewBox="0 0 24 24"><path d="M14 3v4a1 1 0 0 0 1 1h4" />
  <path d="M17 21h-10a2 2 0 0 1 -2 -2v-14a2 2 0 0 1 2 -2h7l5 5v11a2 2 0 0 1 -2 2" />
  <path d="M12 17v.01" />
  <path d="M12 14a1.5 1.5 0 1 0 -1.14 -2.474" /></symbol><symbol id="lovely-unlock-worktree" viewBox="0 0 24 24"><path d="M5 13a2 2 0 0 1 2 -2h10a2 2 0 0 1 2 2v6a2 2 0 0 1 -2 2h-10a2 2 0 0 1 -2 -2l0 -6" />
  <path d="M11 16a1 1 0 1 0 2 0a1 1 0 1 0 -2 0" />
  <path d="M8 11v-5a4 4 0 0 1 8 0" /></symbol><symbol id="lovely-unstage-changes" viewBox="0 0 24 24"><path d="M9 12h6" />
  <path d="M3 5a2 2 0 0 1 2 -2h14a2 2 0 0 1 2 2v14a2 2 0 0 1 -2 2h-14a2 2 0 0 1 -2 -2v-14" /></symbol><symbol id="lovely-verified-signature" viewBox="0 0 24 24"><path d="M5 7.2a2.2 2.2 0 0 1 2.2 -2.2h1a2.2 2.2 0 0 0 1.55 -.64l.7 -.7a2.2 2.2 0 0 1 3.12 0l.7 .7c.412 .41 .97 .64 1.55 .64h1a2.2 2.2 0 0 1 2.2 2.2v1c0 .58 .23 1.138 .64 1.55l.7 .7a2.2 2.2 0 0 1 0 3.12l-.7 .7a2.2 2.2 0 0 0 -.64 1.55v1a2.2 2.2 0 0 1 -2.2 2.2h-1a2.2 2.2 0 0 0 -1.55 .64l-.7 .7a2.2 2.2 0 0 1 -3.12 0l-.7 -.7a2.2 2.2 0 0 0 -1.55 -.64h-1a2.2 2.2 0 0 1 -2.2 -2.2v-1a2.2 2.2 0 0 0 -.64 -1.55l-.7 -.7a2.2 2.2 0 0 1 0 -3.12l.7 -.7a2.2 2.2 0 0 0 .64 -1.55v-1" />
  <path d="M9 12l2 2l4 -4" /></symbol><symbol id="lovely-warning-triangle" viewBox="0 0 24 24"><path d="M12 9v4" />
  <path d="M10.363 3.591l-8.106 13.534a1.914 1.914 0 0 0 1.636 2.871h16.214a1.914 1.914 0 0 0 1.636 -2.87l-8.106 -13.536a1.914 1.914 0 0 0 -3.274 0" />
  <path d="M12 16h.01" /></symbol><symbol id="lovely-wrap-long-lines" viewBox="0 0 24 24"><path d="M4 6l16 0" />
  <path d="M4 18l5 0" />
  <path d="M4 12h13a3 3 0 0 1 0 6h-4l2 -2m0 4l-2 -2" /></symbol></svg>